
<global>
amp_veltrack=0
ampeg_release=0.85
</global>

<group>
group_label=RR4_0-42
seq_length=4
seq_position=4
xfin_hicc1=42
xfout_hicc1=84
xfout_locc1=42

<region>
hivel=127
key=A#2
lovel=0
sample=Horn_staccato_PP_A#2_RR4.opus
</region>

<region>
hivel=127
key=A#3
lovel=0
sample=Horn_staccato_PP_A#3_RR4.opus
</region>

<region>
hivel=127
key=A#4
lovel=0
sample=Horn_staccato_PP_A#4_RR4.opus
</region>

<region>
hivel=127
key=A2
lovel=0
sample=Horn_staccato_PP_A2_RR4.opus
</region>

<region>
hivel=127
key=A3
lovel=0
sample=Horn_staccato_PP_A3_RR4.opus
</region>

<region>
hivel=127
key=A4
lovel=0
sample=Horn_staccato_PP_A4_RR4.opus
</region>

<region>
hivel=127
key=B2
lovel=0
sample=Horn_staccato_PP_B2_RR4.opus
</region>

<region>
hivel=127
key=B3
lovel=0
sample=Horn_staccato_PP_B3_RR4.opus
</region>

<region>
hivel=127
key=B4
lovel=0
sample=Horn_staccato_PP_B4_RR4.opus
</region>

<region>
hivel=127
key=C#3
lovel=0
sample=Horn_staccato_PP_C#3_RR4.opus
</region>

<region>
hivel=127
key=C#4
lovel=0
sample=Horn_staccato_PP_C#4_RR4.opus
</region>

<region>
hivel=127
key=C#5
lovel=0
sample=Horn_staccato_PP_C#5_RR4.opus
</region>

<region>
hivel=127
key=C3
lovel=0
sample=Horn_staccato_PP_C3_RR4.opus
</region>

<region>
hivel=127
key=C4
lovel=0
sample=Horn_staccato_PP_C4_RR4.opus
</region>

<region>
hivel=127
key=C5
lovel=0
sample=Horn_staccato_PP_C5_RR4.opus
</region>

<region>
hivel=127
key=D#3
lovel=0
sample=Horn_staccato_PP_D#3_RR4.opus
</region>

<region>
hivel=127
key=D#4
lovel=0
sample=Horn_staccato_PP_D#4_RR4.opus
</region>

<region>
hivel=127
key=D#5
lovel=0
sample=Horn_staccato_PP_D#5_RR4.opus
</region>

<region>
hivel=127
key=D3
lovel=0
sample=Horn_staccato_PP_D3_RR4.opus
</region>

<region>
hivel=127
key=D4
lovel=0
sample=Horn_staccato_PP_D4_RR4.opus
</region>

<region>
hikey=D5
hivel=127
lokey=D5
lovel=0
pitch_keycenter=D#5
sample=Horn_staccato_PP_D5_RR4.opus
</region>

<region>
hivel=127
key=E3
lovel=0
sample=Horn_staccato_PP_E3_RR4.opus
</region>

<region>
hivel=127
key=E4
lovel=0
sample=Horn_staccato_PP_E4_RR4.opus
</region>

<region>
hivel=127
key=E5
lovel=0
sample=Horn_staccato_PP_E5_RR4.opus
</region>

<region>
hivel=127
key=F#2
lovel=0
sample=Horn_staccato_PP_F#2_RR4.opus
</region>

<region>
hivel=127
key=F#3
lovel=0
sample=Horn_staccato_PP_F#3_RR4.opus
</region>

<region>
hivel=127
key=F#4
lovel=0
sample=Horn_staccato_PP_F#4_RR4.opus
</region>

<region>
hikey=F2
hivel=127
lokey=F1
lovel=0
pitch_keycenter=F2
sample=Horn_staccato_PP_F2_RR4.opus
</region>

<region>
hivel=127
key=F3
lovel=0
sample=Horn_staccato_PP_F3_RR4.opus
</region>

<region>
hivel=127
key=F4
lovel=0
sample=Horn_staccato_PP_F4_RR4.opus
</region>

<region>
hikey=A#5
hivel=127
lokey=F5
lovel=0
pitch_keycenter=F5
sample=Horn_staccato_PP_F5_RR4.opus
</region>

<region>
hivel=127
key=G#2
lovel=0
sample=Horn_staccato_PP_G#2_RR4.opus
</region>

<region>
hivel=127
key=G#3
lovel=0
sample=Horn_staccato_PP_G#3_RR4.opus
</region>

<region>
hivel=127
key=G#4
lovel=0
sample=Horn_staccato_PP_G#4_RR4.opus
</region>

<region>
hivel=127
key=G2
lovel=0
sample=Horn_staccato_PP_G2_RR4.opus
</region>

<region>
hivel=127
key=G3
lovel=0
sample=Horn_staccato_PP_G3_RR4.opus
</region>

<region>
hivel=127
key=G4
lovel=0
sample=Horn_staccato_PP_G4_RR4.opus
</region>
</group>

<group>
group_label=RR3_0-42
seq_length=4
seq_position=3
xfin_hicc1=42
xfout_hicc1=84
xfout_locc1=42

<region>
hivel=127
key=A#2
lovel=0
sample=Horn_staccato_PP_A#2_RR3.opus
</region>

<region>
hivel=127
key=A#3
lovel=0
sample=Horn_staccato_PP_A#3_RR3.opus
</region>

<region>
hivel=127
key=A#4
lovel=0
sample=Horn_staccato_PP_A#4_RR3.opus
</region>

<region>
hivel=127
key=A2
lovel=0
sample=Horn_staccato_PP_A2_RR3.opus
</region>

<region>
hivel=127
key=A3
lovel=0
sample=Horn_staccato_PP_A3_RR3.opus
</region>

<region>
hivel=127
key=A4
lovel=0
sample=Horn_staccato_PP_A4_RR3.opus
</region>

<region>
hivel=127
key=B2
lovel=0
sample=Horn_staccato_PP_B2_RR3.opus
</region>

<region>
hivel=127
key=B3
lovel=0
sample=Horn_staccato_PP_B3_RR3.opus
</region>

<region>
hivel=127
key=B4
lovel=0
sample=Horn_staccato_PP_B4_RR3.opus
</region>

<region>
hivel=127
key=C#3
lovel=0
sample=Horn_staccato_PP_C#3_RR3.opus
</region>

<region>
hivel=127
key=C#4
lovel=0
sample=Horn_staccato_PP_C#4_RR3.opus
</region>

<region>
hivel=127
key=C#5
lovel=0
sample=Horn_staccato_PP_C#5_RR3.opus
</region>

<region>
hivel=127
key=C3
lovel=0
sample=Horn_staccato_PP_C3_RR3.opus
</region>

<region>
hivel=127
key=C4
lovel=0
sample=Horn_staccato_PP_C4_RR3.opus
</region>

<region>
hivel=127
key=C5
lovel=0
sample=Horn_staccato_PP_C5_RR3.opus
</region>

<region>
hivel=127
key=D#3
lovel=0
sample=Horn_staccato_PP_D#3_RR3.opus
</region>

<region>
hivel=127
key=D#4
lovel=0
sample=Horn_staccato_PP_D#4_RR3.opus
</region>

<region>
hivel=127
key=D#5
lovel=0
sample=Horn_staccato_PP_D#5_RR3.opus
</region>

<region>
hivel=127
key=D3
lovel=0
sample=Horn_staccato_PP_D3_RR3.opus
</region>

<region>
hivel=127
key=D4
lovel=0
sample=Horn_staccato_PP_D4_RR3.opus
</region>

<region>
hivel=127
key=D5
lovel=0
sample=Horn_staccato_PP_D5_RR3.opus
</region>

<region>
hivel=127
key=E3
lovel=0
sample=Horn_staccato_PP_E3_RR3.opus
</region>

<region>
hivel=127
key=E4
lovel=0
sample=Horn_staccato_PP_E4_RR3.opus
</region>

<region>
hivel=127
key=E5
lovel=0
sample=Horn_staccato_PP_E5_RR3.opus
</region>

<region>
hivel=127
key=F#2
lovel=0
sample=Horn_staccato_PP_F#2_RR3.opus
</region>

<region>
hivel=127
key=F#3
lovel=0
sample=Horn_staccato_PP_F#3_RR3.opus
</region>

<region>
hivel=127
key=F#4
lovel=0
sample=Horn_staccato_PP_F#4_RR3.opus
</region>

<region>
hikey=F2
hivel=127
lokey=F1
lovel=0
pitch_keycenter=F2
sample=Horn_staccato_PP_F2_RR3.opus
</region>

<region>
hivel=127
key=F3
lovel=0
sample=Horn_staccato_PP_F3_RR3.opus
</region>

<region>
hivel=127
key=F4
lovel=0
sample=Horn_staccato_PP_F4_RR3.opus
</region>

<region>
hikey=A#5
hivel=127
lokey=F5
lovel=0
pitch_keycenter=F5
sample=Horn_staccato_PP_F5_RR3.opus
</region>

<region>
hivel=127
key=G#2
lovel=0
sample=Horn_staccato_PP_G#2_RR3.opus
</region>

<region>
hivel=127
key=G#3
lovel=0
sample=Horn_staccato_PP_G#3_RR3.opus
</region>

<region>
hivel=127
key=G#4
lovel=0
sample=Horn_staccato_PP_G#4_RR3.opus
</region>

<region>
hivel=127
key=G2
lovel=0
sample=Horn_staccato_PP_G2_RR3.opus
</region>

<region>
hivel=127
key=G3
lovel=0
sample=Horn_staccato_PP_G3_RR3.opus
</region>

<region>
hivel=127
key=G4
lovel=0
sample=Horn_staccato_PP_G4_RR3.opus
</region>
</group>

<group>
group_label=RR2_0-42
seq_length=4
seq_position=2
xfin_hicc1=42
xfout_hicc1=84
xfout_locc1=42

<region>
hivel=127
key=A#2
lovel=0
sample=Horn_staccato_PP_A#2_RR2.opus
</region>

<region>
hivel=127
key=A#3
lovel=0
sample=Horn_staccato_PP_A#3_RR2.opus
</region>

<region>
hivel=127
key=A#4
lovel=0
sample=Horn_staccato_PP_A#4_RR2.opus
</region>

<region>
hivel=127
key=A2
lovel=0
sample=Horn_staccato_PP_A2_RR2.opus
</region>

<region>
hivel=127
key=A3
lovel=0
sample=Horn_staccato_PP_A3_RR2.opus
</region>

<region>
hivel=127
key=A4
lovel=0
sample=Horn_staccato_PP_A4_RR2.opus
</region>

<region>
hivel=127
key=B2
lovel=0
sample=Horn_staccato_PP_B2_RR2.opus
</region>

<region>
hivel=127
key=B3
lovel=0
sample=Horn_staccato_PP_B3_RR2.opus
</region>

<region>
hivel=127
key=B4
lovel=0
sample=Horn_staccato_PP_B4_RR2.opus
</region>

<region>
hivel=127
key=C#3
lovel=0
sample=Horn_staccato_PP_C#3_RR2.opus
</region>

<region>
hivel=127
key=C#4
lovel=0
sample=Horn_staccato_PP_C#4_RR2.opus
</region>

<region>
hivel=127
key=C#5
lovel=0
sample=Horn_staccato_PP_C#5_RR2.opus
</region>

<region>
hivel=127
key=C3
lovel=0
sample=Horn_staccato_PP_C3_RR2.opus
</region>

<region>
hivel=127
key=C4
lovel=0
sample=Horn_staccato_PP_C4_RR2.opus
</region>

<region>
hivel=127
key=C5
lovel=0
sample=Horn_staccato_PP_C5_RR2.opus
</region>

<region>
hivel=127
key=D#3
lovel=0
sample=Horn_staccato_PP_D#3_RR2.opus
</region>

<region>
hivel=127
key=D#4
lovel=0
sample=Horn_staccato_PP_D#4_RR2.opus
</region>

<region>
hivel=127
key=D#5
lovel=0
sample=Horn_staccato_PP_D#5_RR2.opus
</region>

<region>
hivel=127
key=D3
lovel=0
sample=Horn_staccato_PP_D3_RR2.opus
</region>

<region>
hivel=127
key=D4
lovel=0
sample=Horn_staccato_PP_D4_RR2.opus
</region>

<region>
hivel=127
key=D5
lovel=0
sample=Horn_staccato_PP_D5_RR2.opus
</region>

<region>
hivel=127
key=E3
lovel=0
sample=Horn_staccato_PP_E3_RR2.opus
</region>

<region>
hivel=127
key=E4
lovel=0
sample=Horn_staccato_PP_E4_RR2.opus
</region>

<region>
hivel=127
key=E5
lovel=0
sample=Horn_staccato_PP_E5_RR2.opus
</region>

<region>
hivel=127
key=F#2
lovel=0
sample=Horn_staccato_PP_F#2_RR2.opus
</region>

<region>
hivel=127
key=F#3
lovel=0
sample=Horn_staccato_PP_F#3_RR2.opus
</region>

<region>
hivel=127
key=F#4
lovel=0
sample=Horn_staccato_PP_F#4_RR2.opus
</region>

<region>
hikey=F2
hivel=127
lokey=F1
lovel=0
pitch_keycenter=F2
sample=Horn_staccato_PP_F2_RR2.opus
</region>

<region>
hivel=127
key=F3
lovel=0
sample=Horn_staccato_PP_F3_RR2.opus
</region>

<region>
hivel=127
key=F4
lovel=0
sample=Horn_staccato_PP_F4_RR2.opus
</region>

<region>
hikey=A#5
hivel=127
lokey=F5
lovel=0
pitch_keycenter=F5
sample=Horn_staccato_PP_F5_RR2.opus
</region>

<region>
hivel=127
key=G#2
lovel=0
sample=Horn_staccato_PP_G#2_RR2.opus
</region>

<region>
hivel=127
key=G#3
lovel=0
sample=Horn_staccato_PP_G#3_RR2.opus
</region>

<region>
hivel=127
key=G#4
lovel=0
sample=Horn_staccato_PP_G#4_RR2.opus
</region>

<region>
hivel=127
key=G2
lovel=0
sample=Horn_staccato_PP_G2_RR2.opus
</region>

<region>
hivel=127
key=G3
lovel=0
sample=Horn_staccato_PP_G3_RR2.opus
</region>

<region>
hivel=127
key=G4
lovel=0
sample=Horn_staccato_PP_G4_RR2.opus
</region>
</group>

<group>
group_label=RR1_0-42
seq_length=4
seq_position=1
xfin_hicc1=42
xfout_hicc1=84
xfout_locc1=42

<region>
hivel=127
key=A#2
lovel=0
sample=Horn_staccato_PP_A#2_RR1.opus
</region>

<region>
hivel=127
key=A#3
lovel=0
sample=Horn_staccato_PP_A#3_RR1.opus
</region>

<region>
hivel=127
key=A#4
lovel=0
sample=Horn_staccato_PP_A#4_RR1.opus
</region>

<region>
hivel=127
key=A2
lovel=0
sample=Horn_staccato_PP_A2_RR1.opus
</region>

<region>
hivel=127
key=A3
lovel=0
sample=Horn_staccato_PP_A3_RR1.opus
</region>

<region>
hivel=127
key=A4
lovel=0
sample=Horn_staccato_PP_A4_RR1.opus
</region>

<region>
hivel=127
key=B2
lovel=0
sample=Horn_staccato_PP_B2_RR1.opus
</region>

<region>
hivel=127
key=B3
lovel=0
sample=Horn_staccato_PP_B3_RR1.opus
</region>

<region>
hivel=127
key=B4
lovel=0
sample=Horn_staccato_PP_B4_RR1.opus
</region>

<region>
hivel=127
key=C#3
lovel=0
sample=Horn_staccato_PP_C#3_RR1.opus
</region>

<region>
hivel=127
key=C#4
lovel=0
sample=Horn_staccato_PP_C#4_RR1.opus
</region>

<region>
hivel=127
key=C#5
lovel=0
sample=Horn_staccato_PP_C#5_RR1.opus
</region>

<region>
hivel=127
key=C3
lovel=0
sample=Horn_staccato_PP_C3_RR1.opus
</region>

<region>
hivel=127
key=C4
lovel=0
sample=Horn_staccato_PP_C4_RR1.opus
</region>

<region>
hivel=127
key=C5
lovel=0
sample=Horn_staccato_PP_C5_RR1.opus
</region>

<region>
hivel=127
key=D#3
lovel=0
sample=Horn_staccato_PP_D#3_RR1.opus
</region>

<region>
hivel=127
key=D#4
lovel=0
sample=Horn_staccato_PP_D#4_RR1.opus
</region>

<region>
hivel=127
key=D#5
lovel=0
sample=Horn_staccato_PP_D#5_RR1.opus
</region>

<region>
hivel=127
key=D3
lovel=0
sample=Horn_staccato_PP_D3_RR1.opus
</region>

<region>
hivel=127
key=D4
lovel=0
sample=Horn_staccato_PP_D4_RR1.opus
</region>

<region>
hivel=127
key=D5
lovel=0
sample=Horn_staccato_PP_D5_RR1.opus
</region>

<region>
hivel=127
key=E3
lovel=0
sample=Horn_staccato_PP_E3_RR1.opus
</region>

<region>
hivel=127
key=E4
lovel=0
sample=Horn_staccato_PP_E4_RR1.opus
</region>

<region>
hivel=127
key=E5
lovel=0
sample=Horn_staccato_PP_E5_RR1.opus
</region>

<region>
hivel=127
key=F#2
lovel=0
sample=Horn_staccato_PP_F#2_RR1.opus
</region>

<region>
hivel=127
key=F#3
lovel=0
sample=Horn_staccato_PP_F#3_RR1.opus
</region>

<region>
hivel=127
key=F#4
lovel=0
sample=Horn_staccato_PP_F#4_RR1.opus
</region>

<region>
hikey=F2
hivel=127
lokey=F1
lovel=0
pitch_keycenter=F2
sample=Horn_staccato_PP_F2_RR1.opus
</region>

<region>
hivel=127
key=F3
lovel=0
sample=Horn_staccato_PP_F3_RR1.opus
</region>

<region>
hivel=127
key=F4
lovel=0
sample=Horn_staccato_PP_F4_RR1.opus
</region>

<region>
hikey=A#5
hivel=127
lokey=F5
lovel=0
pitch_keycenter=F5
sample=Horn_staccato_PP_F5_RR1.opus
</region>

<region>
hivel=127
key=G#2
lovel=0
sample=Horn_staccato_PP_G#2_RR1.opus
</region>

<region>
hivel=127
key=G#3
lovel=0
sample=Horn_staccato_PP_G#3_RR1.opus
</region>

<region>
hivel=127
key=G#4
lovel=0
sample=Horn_staccato_PP_G#4_RR1.opus
</region>

<region>
hivel=127
key=G2
lovel=0
sample=Horn_staccato_PP_G2_RR1.opus
</region>

<region>
hivel=127
key=G3
lovel=0
sample=Horn_staccato_PP_G3_RR1.opus
</region>

<region>
hivel=127
key=G4
lovel=0
sample=Horn_staccato_PP_G4_RR1.opus
</region>
</group>

<group>
group_label=RR4_43-84
seq_length=4
seq_position=4
xfin_hicc1=84
xfin_locc1=43
xfout_hicc1=125
xfout_locc1=84

<region>
hivel=127
key=A#2
lovel=0
sample=Horn_staccato_MF_A#2_RR4.opus
</region>

<region>
hivel=127
key=A#3
lovel=0
sample=Horn_staccato_MF_A#3_RR4.opus
</region>

<region>
hivel=127
key=A#4
lovel=0
sample=Horn_staccato_MF_A#4_RR4.opus
</region>

<region>
hivel=127
key=A2
lovel=0
sample=Horn_staccato_MF_A2_RR4.opus
</region>

<region>
hivel=127
key=A3
lovel=0
sample=Horn_staccato_MF_A3_RR4.opus
</region>

<region>
hivel=127
key=A4
lovel=0
sample=Horn_staccato_MF_A4_RR4.opus
</region>

<region>
hivel=127
key=B2
lovel=0
sample=Horn_staccato_MF_B2_RR4.opus
</region>

<region>
hivel=127
key=B3
lovel=0
sample=Horn_staccato_MF_B3_RR4.opus
</region>

<region>
hivel=127
key=B4
lovel=0
sample=Horn_staccato_MF_B4_RR4.opus
</region>

<region>
hivel=127
key=C#3
lovel=0
sample=Horn_staccato_MF_C#3_RR4.opus
</region>

<region>
hivel=127
key=C#4
lovel=0
sample=Horn_staccato_MF_C#4_RR4.opus
</region>

<region>
hivel=127
key=C#5
lovel=0
sample=Horn_staccato_MF_C#5_RR4.opus
</region>

<region>
hivel=127
key=C3
lovel=0
sample=Horn_staccato_MF_C3_RR4.opus
</region>

<region>
hivel=127
key=C4
lovel=0
sample=Horn_staccato_MF_C4_RR4.opus
</region>

<region>
hivel=127
key=C5
lovel=0
sample=Horn_staccato_MF_C5_RR4.opus
</region>

<region>
hivel=127
key=D#3
lovel=0
sample=Horn_staccato_MF_D#3_RR4.opus
</region>

<region>
hivel=127
key=D#4
lovel=0
sample=Horn_staccato_MF_D#4_RR4.opus
</region>

<region>
hivel=127
key=D#5
lovel=0
sample=Horn_staccato_MF_D#5_RR4.opus
</region>

<region>
hivel=127
key=D3
lovel=0
sample=Horn_staccato_MF_D3_RR4.opus
</region>

<region>
hivel=127
key=D4
lovel=0
sample=Horn_staccato_MF_D4_RR4.opus
</region>

<region>
hivel=127
key=D5
lovel=0
sample=Horn_staccato_MF_D5_RR4.opus
</region>

<region>
hivel=127
key=E3
lovel=0
sample=Horn_staccato_MF_E3_RR4.opus
</region>

<region>
hivel=127
key=E4
lovel=0
sample=Horn_staccato_MF_E4_RR4.opus
</region>

<region>
hivel=127
key=E5
lovel=0
sample=Horn_staccato_MF_E5_RR4.opus
</region>

<region>
hivel=127
key=F#2
lovel=0
sample=Horn_staccato_MF_F#2_RR4.opus
</region>

<region>
hivel=127
key=F#3
lovel=0
sample=Horn_staccato_MF_F#3_RR4.opus
</region>

<region>
hivel=127
key=F#4
lovel=0
sample=Horn_staccato_MF_F#4_RR4.opus
</region>

<region>
hikey=F2
hivel=127
lokey=F1
lovel=0
pitch_keycenter=F2
sample=Horn_staccato_MF_F2_RR4.opus
</region>

<region>
hivel=127
key=F3
lovel=0
sample=Horn_staccato_MF_F3_RR4.opus
</region>

<region>
hivel=127
key=F4
lovel=0
sample=Horn_staccato_MF_F4_RR4.opus
</region>

<region>
hikey=A#5
hivel=127
lokey=F5
lovel=0
pitch_keycenter=F5
sample=Horn_staccato_MF_F5_RR4.opus
</region>

<region>
hivel=127
key=G#2
lovel=0
sample=Horn_staccato_MF_G#2_RR4.opus
</region>

<region>
hivel=127
key=G#3
lovel=0
sample=Horn_staccato_MF_G#3_RR4.opus
</region>

<region>
hivel=127
key=G#4
lovel=0
sample=Horn_staccato_MF_G#4_RR4.opus
</region>

<region>
hivel=127
key=G2
lovel=0
sample=Horn_staccato_MF_G2_RR4.opus
</region>

<region>
hivel=127
key=G3
lovel=0
sample=Horn_staccato_MF_G3_RR4.opus
</region>

<region>
hivel=127
key=G4
lovel=0
sample=Horn_staccato_MF_G4_RR4.opus
</region>
</group>

<group>
group_label=RR3_43-84
seq_length=4
seq_position=3
xfin_hicc1=84
xfin_locc1=43
xfout_hicc1=125
xfout_locc1=84

<region>
hivel=127
key=A#2
lovel=0
sample=Horn_staccato_MF_A#2_RR3.opus
</region>

<region>
hivel=127
key=A#3
lovel=0
sample=Horn_staccato_MF_A#3_RR3.opus
</region>

<region>
hivel=127
key=A#4
lovel=0
sample=Horn_staccato_MF_A#4_RR3.opus
</region>

<region>
hivel=127
key=A2
lovel=0
sample=Horn_staccato_MF_A2_RR3.opus
</region>

<region>
hivel=127
key=A3
lovel=0
sample=Horn_staccato_MF_A3_RR3.opus
</region>

<region>
hivel=127
key=A4
lovel=0
sample=Horn_staccato_MF_A4_RR3.opus
</region>

<region>
hivel=127
key=B2
lovel=0
sample=Horn_staccato_MF_B2_RR3.opus
</region>

<region>
hivel=127
key=B3
lovel=0
sample=Horn_staccato_MF_B3_RR3.opus
</region>

<region>
hivel=127
key=B4
lovel=0
sample=Horn_staccato_MF_B4_RR3.opus
</region>

<region>
hivel=127
key=C#3
lovel=0
sample=Horn_staccato_MF_C#3_RR3.opus
</region>

<region>
hivel=127
key=C#4
lovel=0
sample=Horn_staccato_MF_C#4_RR3.opus
</region>

<region>
hivel=127
key=C#5
lovel=0
sample=Horn_staccato_MF_C#5_RR3.opus
</region>

<region>
hivel=127
key=C3
lovel=0
sample=Horn_staccato_MF_C3_RR3.opus
</region>

<region>
hivel=127
key=C4
lovel=0
sample=Horn_staccato_MF_C4_RR3.opus
</region>

<region>
hivel=127
key=C5
lovel=0
sample=Horn_staccato_MF_C5_RR3.opus
</region>

<region>
hivel=127
key=D#3
lovel=0
sample=Horn_staccato_MF_D#3_RR3.opus
</region>

<region>
hivel=127
key=D#4
lovel=0
sample=Horn_staccato_MF_D#4_RR3.opus
</region>

<region>
hivel=127
key=D#5
lovel=0
sample=Horn_staccato_MF_D#5_RR3.opus
</region>

<region>
hivel=127
key=D3
lovel=0
sample=Horn_staccato_MF_D3_RR3.opus
</region>

<region>
hivel=127
key=D4
lovel=0
sample=Horn_staccato_MF_D4_RR3.opus
</region>

<region>
hivel=127
key=D5
lovel=0
sample=Horn_staccato_MF_D5_RR3.opus
</region>

<region>
hivel=127
key=E3
lovel=0
sample=Horn_staccato_MF_E3_RR3.opus
</region>

<region>
hivel=127
key=E4
lovel=0
sample=Horn_staccato_MF_E4_RR3.opus
</region>

<region>
hivel=127
key=E5
lovel=0
sample=Horn_staccato_MF_E5_RR3.opus
</region>

<region>
hivel=127
key=F#2
lovel=0
sample=Horn_staccato_MF_F#2_RR3.opus
</region>

<region>
hivel=127
key=F#3
lovel=0
sample=Horn_staccato_MF_F#3_RR3.opus
</region>

<region>
hivel=127
key=F#4
lovel=0
sample=Horn_staccato_MF_F#4_RR3.opus
</region>

<region>
hikey=F2
hivel=127
lokey=F1
lovel=0
pitch_keycenter=F2
sample=Horn_staccato_MF_F2_RR3.opus
</region>

<region>
hivel=127
key=F3
lovel=0
sample=Horn_staccato_MF_F3_RR3.opus
</region>

<region>
hivel=127
key=F4
lovel=0
sample=Horn_staccato_MF_F4_RR3.opus
</region>

<region>
hikey=A#5
hivel=127
lokey=F5
lovel=0
pitch_keycenter=F5
sample=Horn_staccato_MF_F5_RR3.opus
</region>

<region>
hivel=127
key=G#2
lovel=0
sample=Horn_staccato_MF_G#2_RR3.opus
</region>

<region>
hivel=127
key=G#3
lovel=0
sample=Horn_staccato_MF_G#3_RR3.opus
</region>

<region>
hivel=127
key=G#4
lovel=0
sample=Horn_staccato_MF_G#4_RR3.opus
</region>

<region>
hivel=127
key=G2
lovel=0
sample=Horn_staccato_MF_G2_RR3.opus
</region>

<region>
hivel=127
key=G3
lovel=0
sample=Horn_staccato_MF_G3_RR3.opus
</region>

<region>
hivel=127
key=G4
lovel=0
sample=Horn_staccato_MF_G4_RR3.opus
</region>
</group>

<group>
group_label=RR2_43-84
seq_length=4
seq_position=2
xfin_hicc1=84
xfin_locc1=43
xfout_hicc1=125
xfout_locc1=84

<region>
hivel=127
key=A#2
lovel=0
sample=Horn_staccato_MF_A#2_RR2.opus
</region>

<region>
hivel=127
key=A#3
lovel=0
sample=Horn_staccato_MF_A#3_RR2.opus
</region>

<region>
hivel=127
key=A#4
lovel=0
sample=Horn_staccato_MF_A#4_RR2.opus
</region>

<region>
hivel=127
key=A2
lovel=0
sample=Horn_staccato_MF_A2_RR2.opus
</region>

<region>
hivel=127
key=A3
lovel=0
sample=Horn_staccato_MF_A3_RR2.opus
</region>

<region>
hivel=127
key=A4
lovel=0
sample=Horn_staccato_MF_A4_RR2.opus
</region>

<region>
hivel=127
key=B2
lovel=0
sample=Horn_staccato_MF_B2_RR2.opus
</region>

<region>
hivel=127
key=B3
lovel=0
sample=Horn_staccato_MF_B3_RR2.opus
</region>

<region>
hivel=127
key=B4
lovel=0
sample=Horn_staccato_MF_B4_RR2.opus
</region>

<region>
hivel=127
key=C#3
lovel=0
sample=Horn_staccato_MF_C#3_RR2.opus
</region>

<region>
hivel=127
key=C#4
lovel=0
sample=Horn_staccato_MF_C#4_RR2.opus
</region>

<region>
hivel=127
key=C#5
lovel=0
sample=Horn_staccato_MF_C#5_RR2.opus
</region>

<region>
hivel=127
key=C3
lovel=0
sample=Horn_staccato_MF_C3_RR2.opus
</region>

<region>
hivel=127
key=C4
lovel=0
sample=Horn_staccato_MF_C4_RR2.opus
</region>

<region>
hivel=127
key=C5
lovel=0
sample=Horn_staccato_MF_C5_RR2.opus
</region>

<region>
hivel=127
key=D#3
lovel=0
sample=Horn_staccato_MF_D#3_RR2.opus
</region>

<region>
hivel=127
key=D#4
lovel=0
sample=Horn_staccato_MF_D#4_RR2.opus
</region>

<region>
hivel=127
key=D#5
lovel=0
sample=Horn_staccato_MF_D#5_RR2.opus
</region>

<region>
hivel=127
key=D3
lovel=0
sample=Horn_staccato_MF_D3_RR2.opus
</region>

<region>
hivel=127
key=D4
lovel=0
sample=Horn_staccato_MF_D4_RR2.opus
</region>

<region>
hivel=127
key=D5
lovel=0
sample=Horn_staccato_MF_D5_RR2.opus
</region>

<region>
hivel=127
key=E3
lovel=0
sample=Horn_staccato_MF_E3_RR2.opus
</region>

<region>
hivel=127
key=E4
lovel=0
sample=Horn_staccato_MF_E4_RR2.opus
</region>

<region>
hivel=127
key=E5
lovel=0
sample=Horn_staccato_MF_E5_RR2.opus
</region>

<region>
hivel=127
key=F#2
lovel=0
sample=Horn_staccato_MF_F#2_RR2.opus
</region>

<region>
hivel=127
key=F#3
lovel=0
sample=Horn_staccato_MF_F#3_RR2.opus
</region>

<region>
hivel=127
key=F#4
lovel=0
sample=Horn_staccato_MF_F#4_RR2.opus
</region>

<region>
hikey=F2
hivel=127
lokey=F1
lovel=0
pitch_keycenter=F2
sample=Horn_staccato_MF_F2_RR2.opus
</region>

<region>
hivel=127
key=F3
lovel=0
sample=Horn_staccato_MF_F3_RR2.opus
</region>

<region>
hivel=127
key=F4
lovel=0
sample=Horn_staccato_MF_F4_RR2.opus
</region>

<region>
hikey=A#5
hivel=127
lokey=F5
lovel=0
pitch_keycenter=F5
sample=Horn_staccato_MF_F5_RR2.opus
</region>

<region>
hivel=127
key=G#2
lovel=0
sample=Horn_staccato_MF_G#2_RR2.opus
</region>

<region>
hivel=127
key=G#3
lovel=0
sample=Horn_staccato_MF_G#3_RR2.opus
</region>

<region>
hivel=127
key=G#4
lovel=0
sample=Horn_staccato_MF_G#4_RR2.opus
</region>

<region>
hivel=127
key=G2
lovel=0
sample=Horn_staccato_MF_G2_RR2.opus
</region>

<region>
hivel=127
key=G3
lovel=0
sample=Horn_staccato_MF_G3_RR2.opus
</region>

<region>
hivel=127
key=G4
lovel=0
sample=Horn_staccato_MF_G4_RR2.opus
</region>
</group>

<group>
group_label=RR1_43-84
seq_length=4
seq_position=1
xfin_hicc1=84
xfin_locc1=43
xfout_hicc1=125
xfout_locc1=84

<region>
hivel=127
key=A#2
lovel=0
sample=Horn_staccato_MF_A#2_RR1.opus
</region>

<region>
hivel=127
key=A#3
lovel=0
sample=Horn_staccato_MF_A#3_RR1.opus
</region>

<region>
hivel=127
key=A#4
lovel=0
sample=Horn_staccato_MF_A#4_RR1.opus
</region>

<region>
hivel=127
key=A2
lovel=0
sample=Horn_staccato_MF_A2_RR1.opus
</region>

<region>
hivel=127
key=A3
lovel=0
sample=Horn_staccato_MF_A3_RR1.opus
</region>

<region>
hivel=127
key=A4
lovel=0
sample=Horn_staccato_MF_A4_RR1.opus
</region>

<region>
hivel=127
key=B2
lovel=0
sample=Horn_staccato_MF_B2_RR1.opus
</region>

<region>
hivel=127
key=B3
lovel=0
sample=Horn_staccato_MF_B3_RR1.opus
</region>

<region>
hivel=127
key=B4
lovel=0
sample=Horn_staccato_MF_B4_RR1.opus
</region>

<region>
hivel=127
key=C#3
lovel=0
sample=Horn_staccato_MF_C#3_RR1.opus
</region>

<region>
hivel=127
key=C#4
lovel=0
sample=Horn_staccato_MF_C#4_RR1.opus
</region>

<region>
hivel=127
key=C#5
lovel=0
sample=Horn_staccato_MF_C#5_RR1.opus
</region>

<region>
hivel=127
key=C3
lovel=0
sample=Horn_staccato_MF_C3_RR1.opus
</region>

<region>
hivel=127
key=C4
lovel=0
sample=Horn_staccato_MF_C4_RR1.opus
</region>

<region>
hivel=127
key=C5
lovel=0
sample=Horn_staccato_MF_C5_RR1.opus
</region>

<region>
hivel=127
key=D#3
lovel=0
sample=Horn_staccato_MF_D#3_RR1.opus
</region>

<region>
hivel=127
key=D#4
lovel=0
sample=Horn_staccato_MF_D#4_RR1.opus
</region>

<region>
hivel=127
key=D#5
lovel=0
sample=Horn_staccato_MF_D#5_RR1.opus
</region>

<region>
hivel=127
key=D3
lovel=0
sample=Horn_staccato_MF_D3_RR1.opus
</region>

<region>
hivel=127
key=D4
lovel=0
sample=Horn_staccato_MF_D4_RR1.opus
</region>

<region>
hivel=127
key=D5
lovel=0
sample=Horn_staccato_MF_D5_RR1.opus
</region>

<region>
hivel=127
key=E3
lovel=0
sample=Horn_staccato_MF_E3_RR1.opus
</region>

<region>
hivel=127
key=E4
lovel=0
sample=Horn_staccato_MF_E4_RR1.opus
</region>

<region>
hivel=127
key=E5
lovel=0
sample=Horn_staccato_MF_E5_RR1.opus
</region>

<region>
hivel=127
key=F#2
lovel=0
sample=Horn_staccato_MF_F#2_RR1.opus
</region>

<region>
hivel=127
key=F#3
lovel=0
sample=Horn_staccato_MF_F#3_RR1.opus
</region>

<region>
hivel=127
key=F#4
lovel=0
sample=Horn_staccato_MF_F#4_RR1.opus
</region>

<region>
hikey=F2
hivel=127
lokey=F1
lovel=0
pitch_keycenter=F2
sample=Horn_staccato_MF_F2_RR1.opus
</region>

<region>
hivel=127
key=F3
lovel=0
sample=Horn_staccato_MF_F3_RR1.opus
</region>

<region>
hivel=127
key=F4
lovel=0
sample=Horn_staccato_MF_F4_RR1.opus
</region>

<region>
hikey=A#5
hivel=127
lokey=F5
lovel=0
pitch_keycenter=F5
sample=Horn_staccato_MF_F5_RR1.opus
</region>

<region>
hivel=127
key=G#2
lovel=0
sample=Horn_staccato_MF_G#2_RR1.opus
</region>

<region>
hivel=127
key=G#3
lovel=0
sample=Horn_staccato_MF_G#3_RR1.opus
</region>

<region>
hivel=127
key=G#4
lovel=0
sample=Horn_staccato_MF_G#4_RR1.opus
</region>

<region>
hivel=127
key=G2
lovel=0
sample=Horn_staccato_MF_G2_RR1.opus
</region>

<region>
hivel=127
key=G3
lovel=0
sample=Horn_staccato_MF_G3_RR1.opus
</region>

<region>
hivel=127
key=G4
lovel=0
sample=Horn_staccato_MF_G4_RR1.opus
</region>
</group>

<group>
group_label=RR1_85-127
seq_length=4
seq_position=1
xfin_hicc1=127
xfin_locc1=85
xfout_hicc1=127
xfout_locc1=127

<region>
hivel=127
key=A#2
lovel=0
sample=Horn_staccato_FF_A#2_RR1.opus
</region>

<region>
hivel=127
key=A#3
lovel=0
sample=Horn_staccato_FF_A#3_RR1.opus
</region>

<region>
hivel=127
key=A#4
lovel=0
sample=Horn_staccato_FF_A#4_RR1.opus
</region>

<region>
hivel=127
key=A2
lovel=0
sample=Horn_staccato_FF_A2_RR1.opus
</region>

<region>
hivel=127
key=A3
lovel=0
sample=Horn_staccato_FF_A3_RR1.opus
</region>

<region>
hivel=127
key=A4
lovel=0
sample=Horn_staccato_FF_A4_RR1.opus
</region>

<region>
hivel=127
key=B2
lovel=0
sample=Horn_staccato_FF_B2_RR1.opus
</region>

<region>
hivel=127
key=B3
lovel=0
sample=Horn_staccato_FF_B3_RR1.opus
</region>

<region>
hivel=127
key=B4
lovel=0
sample=Horn_staccato_FF_B4_RR1.opus
</region>

<region>
hivel=127
key=C#3
lovel=0
sample=Horn_staccato_FF_C#3_RR1.opus
</region>

<region>
hivel=127
key=C#4
lovel=0
sample=Horn_staccato_FF_C#4_RR1.opus
</region>

<region>
hivel=127
key=C#5
lovel=0
sample=Horn_staccato_FF_C#5_RR1.opus
</region>

<region>
hivel=127
key=C3
lovel=0
sample=Horn_staccato_FF_C3_RR1.opus
</region>

<region>
hivel=127
key=C4
lovel=0
sample=Horn_staccato_FF_C4_RR1.opus
</region>

<region>
hivel=127
key=C5
lovel=0
sample=Horn_staccato_FF_C5_RR1.opus
</region>

<region>
hivel=127
key=D#3
lovel=0
sample=Horn_staccato_FF_D#3_RR1.opus
</region>

<region>
hivel=127
key=D#4
lovel=0
sample=Horn_staccato_FF_D#4_RR1.opus
</region>

<region>
hivel=127
key=D#5
lovel=0
sample=Horn_staccato_FF_D#5_RR1.opus
</region>

<region>
hivel=127
key=D3
lovel=0
sample=Horn_staccato_FF_D3_RR1.opus
</region>

<region>
hivel=127
key=D4
lovel=0
sample=Horn_staccato_FF_D4_RR1.opus
</region>

<region>
hivel=127
key=D5
lovel=0
sample=Horn_staccato_FF_D5_RR1.opus
</region>

<region>
hivel=127
key=E3
lovel=0
sample=Horn_staccato_FF_E3_RR1.opus
</region>

<region>
hivel=127
key=E4
lovel=0
sample=Horn_staccato_FF_E4_RR1.opus
</region>

<region>
hivel=127
key=E5
lovel=0
sample=Horn_staccato_FF_E5_RR1.opus
</region>

<region>
hivel=127
key=F#2
lovel=0
sample=Horn_staccato_FF_F#2_RR1.opus
</region>

<region>
hivel=127
key=F#3
lovel=0
sample=Horn_staccato_FF_F#3_RR1.opus
</region>

<region>
hivel=127
key=F#4
lovel=0
sample=Horn_staccato_FF_F#4_RR1.opus
</region>

<region>
hikey=F2
hivel=127
lokey=F1
lovel=0
pitch_keycenter=F2
sample=Horn_staccato_FF_F2_RR1.opus
</region>

<region>
hivel=127
key=F3
lovel=0
sample=Horn_staccato_FF_F3_RR1.opus
</region>

<region>
hivel=127
key=F4
lovel=0
sample=Horn_staccato_FF_F4_RR1.opus
</region>

<region>
hikey=A#5
hivel=127
lokey=F5
lovel=0
pitch_keycenter=F5
sample=Horn_staccato_FF_F5_RR1.opus
</region>

<region>
hivel=127
key=G#2
lovel=0
sample=Horn_staccato_FF_G#2_RR1.opus
</region>

<region>
hivel=127
key=G#3
lovel=0
sample=Horn_staccato_FF_G#3_RR1.opus
</region>

<region>
hivel=127
key=G#4
lovel=0
sample=Horn_staccato_FF_G#4_RR1.opus
</region>

<region>
hivel=127
key=G2
lovel=0
sample=Horn_staccato_FF_G2_RR1.opus
</region>

<region>
hivel=127
key=G3
lovel=0
sample=Horn_staccato_FF_G3_RR1.opus
</region>

<region>
hivel=127
key=G4
lovel=0
sample=Horn_staccato_FF_G4_RR1.opus
</region>
</group>

<group>
group_label=RR2_85-127
seq_length=4
seq_position=2
xfin_hicc1=127
xfin_locc1=85
xfout_hicc1=127
xfout_locc1=127

<region>
hivel=127
key=A#2
lovel=0
sample=Horn_staccato_FF_A#2_RR2.opus
</region>

<region>
hivel=127
key=A#3
lovel=0
sample=Horn_staccato_FF_A#3_RR2.opus
</region>

<region>
hivel=127
key=A#4
lovel=0
sample=Horn_staccato_FF_A#4_RR2.opus
</region>

<region>
hivel=127
key=A2
lovel=0
sample=Horn_staccato_FF_A2_RR2.opus
</region>

<region>
hivel=127
key=A3
lovel=0
sample=Horn_staccato_FF_A3_RR2.opus
</region>

<region>
hivel=127
key=A4
lovel=0
sample=Horn_staccato_FF_A4_RR2.opus
</region>

<region>
hivel=127
key=B2
lovel=0
sample=Horn_staccato_FF_B2_RR2.opus
</region>

<region>
hivel=127
key=B3
lovel=0
sample=Horn_staccato_FF_B3_RR2.opus
</region>

<region>
hivel=127
key=B4
lovel=0
sample=Horn_staccato_FF_B4_RR2.opus
</region>

<region>
hivel=127
key=C#3
lovel=0
sample=Horn_staccato_FF_C#3_RR2.opus
</region>

<region>
hivel=127
key=C#4
lovel=0
sample=Horn_staccato_FF_C#4_RR2.opus
</region>

<region>
hivel=127
key=C#5
lovel=0
sample=Horn_staccato_FF_C#5_RR2.opus
</region>

<region>
hivel=127
key=C3
lovel=0
sample=Horn_staccato_FF_C3_RR2.opus
</region>

<region>
hivel=127
key=C4
lovel=0
sample=Horn_staccato_FF_C4_RR2.opus
</region>

<region>
hivel=127
key=C5
lovel=0
sample=Horn_staccato_FF_C5_RR2.opus
</region>

<region>
hivel=127
key=D#3
lovel=0
sample=Horn_staccato_FF_D#3_RR2.opus
</region>

<region>
hivel=127
key=D#4
lovel=0
sample=Horn_staccato_FF_D#4_RR2.opus
</region>

<region>
hivel=127
key=D#5
lovel=0
sample=Horn_staccato_FF_D#5_RR2.opus
</region>

<region>
hivel=127
key=D3
lovel=0
sample=Horn_staccato_FF_D3_RR2.opus
</region>

<region>
hivel=127
key=D4
lovel=0
sample=Horn_staccato_FF_D4_RR2.opus
</region>

<region>
hivel=127
key=D5
lovel=0
sample=Horn_staccato_FF_D5_RR2.opus
</region>

<region>
hivel=127
key=E3
lovel=0
sample=Horn_staccato_FF_E3_RR2.opus
</region>

<region>
hivel=127
key=E4
lovel=0
sample=Horn_staccato_FF_E4_RR2.opus
</region>

<region>
hivel=127
key=E5
lovel=0
sample=Horn_staccato_FF_E5_RR2.opus
</region>

<region>
hivel=127
key=F#2
lovel=0
sample=Horn_staccato_FF_F#2_RR2.opus
</region>

<region>
hivel=127
key=F#3
lovel=0
sample=Horn_staccato_FF_F#3_RR2.opus
</region>

<region>
hivel=127
key=F#4
lovel=0
sample=Horn_staccato_FF_F#4_RR2.opus
</region>

<region>
hikey=F2
hivel=127
lokey=F1
lovel=0
pitch_keycenter=F2
sample=Horn_staccato_FF_F2_RR2.opus
</region>

<region>
hivel=127
key=F3
lovel=0
sample=Horn_staccato_FF_F3_RR2.opus
</region>

<region>
hivel=127
key=F4
lovel=0
sample=Horn_staccato_FF_F4_RR2.opus
</region>

<region>
hikey=A#5
hivel=127
lokey=F5
lovel=0
pitch_keycenter=F5
sample=Horn_staccato_FF_F5_RR2.opus
</region>

<region>
hivel=127
key=G#2
lovel=0
sample=Horn_staccato_FF_G#2_RR2.opus
</region>

<region>
hivel=127
key=G#3
lovel=0
sample=Horn_staccato_FF_G#3_RR2.opus
</region>

<region>
hivel=127
key=G#4
lovel=0
sample=Horn_staccato_FF_G#4_RR2.opus
</region>

<region>
hivel=127
key=G2
lovel=0
sample=Horn_staccato_FF_G2_RR2.opus
</region>

<region>
hivel=127
key=G3
lovel=0
sample=Horn_staccato_FF_G3_RR2.opus
</region>

<region>
hivel=127
key=G4
lovel=0
sample=Horn_staccato_FF_G4_RR2.opus
</region>
</group>

<group>
group_label=RR3_85-127
seq_length=4
seq_position=3
xfin_hicc1=127
xfin_locc1=85
xfout_hicc1=127
xfout_locc1=127

<region>
hivel=127
key=A#2
lovel=0
sample=Horn_staccato_FF_A#2_RR3.opus
</region>

<region>
hivel=127
key=A#3
lovel=0
sample=Horn_staccato_FF_A#3_RR3.opus
</region>

<region>
hivel=127
key=A#4
lovel=0
sample=Horn_staccato_FF_A#4_RR3.opus
</region>

<region>
hivel=127
key=A2
lovel=0
sample=Horn_staccato_FF_A2_RR3.opus
</region>

<region>
hivel=127
key=A3
lovel=0
sample=Horn_staccato_FF_A3_RR3.opus
</region>

<region>
hivel=127
key=A4
lovel=0
sample=Horn_staccato_FF_A4_RR3.opus
</region>

<region>
hivel=127
key=B2
lovel=0
sample=Horn_staccato_FF_B2_RR3.opus
</region>

<region>
hivel=127
key=B3
lovel=0
sample=Horn_staccato_FF_B3_RR3.opus
</region>

<region>
hivel=127
key=B4
lovel=0
sample=Horn_staccato_FF_B4_RR3.opus
</region>

<region>
hivel=127
key=C#3
lovel=0
sample=Horn_staccato_FF_C#3_RR3.opus
</region>

<region>
hivel=127
key=C#4
lovel=0
sample=Horn_staccato_FF_C#4_RR3.opus
</region>

<region>
hivel=127
key=C#5
lovel=0
sample=Horn_staccato_FF_C#5_RR3.opus
</region>

<region>
hivel=127
key=C3
lovel=0
sample=Horn_staccato_FF_C3_RR3.opus
</region>

<region>
hivel=127
key=C4
lovel=0
sample=Horn_staccato_FF_C4_RR3.opus
</region>

<region>
hivel=127
key=C5
lovel=0
sample=Horn_staccato_FF_C5_RR3.opus
</region>

<region>
hivel=127
key=D#3
lovel=0
sample=Horn_staccato_FF_D#3_RR3.opus
</region>

<region>
hivel=127
key=D#4
lovel=0
sample=Horn_staccato_FF_D#4_RR3.opus
</region>

<region>
hivel=127
key=D#5
lovel=0
sample=Horn_staccato_FF_D#5_RR3.opus
</region>

<region>
hivel=127
key=D3
lovel=0
sample=Horn_staccato_FF_D3_RR3.opus
</region>

<region>
hivel=127
key=D4
lovel=0
sample=Horn_staccato_FF_D4_RR3.opus
</region>

<region>
hivel=127
key=D5
lovel=0
sample=Horn_staccato_FF_D5_RR3.opus
</region>

<region>
hivel=127
key=E3
lovel=0
sample=Horn_staccato_FF_E3_RR3.opus
</region>

<region>
hivel=127
key=E4
lovel=0
sample=Horn_staccato_FF_E4_RR3.opus
</region>

<region>
hivel=127
key=E5
lovel=0
sample=Horn_staccato_FF_E5_RR3.opus
</region>

<region>
hivel=127
key=F#2
lovel=0
sample=Horn_staccato_FF_F#2_RR3.opus
</region>

<region>
hivel=127
key=F#3
lovel=0
sample=Horn_staccato_FF_F#3_RR3.opus
</region>

<region>
hivel=127
key=F#4
lovel=0
sample=Horn_staccato_FF_F#4_RR3.opus
</region>

<region>
hikey=F2
hivel=127
lokey=F1
lovel=0
pitch_keycenter=F2
sample=Horn_staccato_FF_F2_RR3.opus
</region>

<region>
hivel=127
key=F3
lovel=0
sample=Horn_staccato_FF_F3_RR3.opus
</region>

<region>
hivel=127
key=F4
lovel=0
sample=Horn_staccato_FF_F4_RR3.opus
</region>

<region>
hikey=A#5
hivel=127
lokey=F5
lovel=0
pitch_keycenter=F5
sample=Horn_staccato_FF_F5_RR3.opus
</region>

<region>
hivel=127
key=G#2
lovel=0
sample=Horn_staccato_FF_G#2_RR3.opus
</region>

<region>
hivel=127
key=G#3
lovel=0
sample=Horn_staccato_FF_G#3_RR3.opus
</region>

<region>
hivel=127
key=G#4
lovel=0
sample=Horn_staccato_FF_G#4_RR3.opus
</region>

<region>
hivel=127
key=G2
lovel=0
sample=Horn_staccato_FF_G2_RR3.opus
</region>

<region>
hivel=127
key=G3
lovel=0
sample=Horn_staccato_FF_G3_RR3.opus
</region>

<region>
hivel=127
key=G4
lovel=0
sample=Horn_staccato_FF_G4_RR3.opus
</region>
</group>

<group>
group_label=RR4_85-127
seq_length=4
seq_position=4
xfin_hicc1=127
xfin_locc1=85
xfout_hicc1=127
xfout_locc1=127

<region>
hivel=127
key=A#2
lovel=0
sample=Horn_staccato_FF_A#2_RR4.opus
</region>

<region>
hivel=127
key=A#3
lovel=0
sample=Horn_staccato_FF_A#3_RR4.opus
</region>

<region>
hivel=127
key=A#4
lovel=0
sample=Horn_staccato_FF_A#4_RR4.opus
</region>

<region>
hivel=127
key=A2
lovel=0
sample=Horn_staccato_FF_A2_RR4.opus
</region>

<region>
hivel=127
key=A3
lovel=0
sample=Horn_staccato_FF_A3_RR4.opus
</region>

<region>
hivel=127
key=A4
lovel=0
sample=Horn_staccato_FF_A4_RR4.opus
</region>

<region>
hivel=127
key=B2
lovel=0
sample=Horn_staccato_FF_B2_RR4.opus
</region>

<region>
hivel=127
key=B3
lovel=0
sample=Horn_staccato_FF_B3_RR4.opus
</region>

<region>
hivel=127
key=B4
lovel=0
sample=Horn_staccato_FF_B4_RR4.opus
</region>

<region>
hivel=127
key=C#3
lovel=0
sample=Horn_staccato_FF_C#3_RR4.opus
</region>

<region>
hivel=127
key=C#4
lovel=0
sample=Horn_staccato_FF_C#4_RR4.opus
</region>

<region>
hivel=127
key=C#5
lovel=0
sample=Horn_staccato_FF_C#5_RR4.opus
</region>

<region>
hivel=127
key=C3
lovel=0
sample=Horn_staccato_FF_C3_RR4.opus
</region>

<region>
hivel=127
key=C4
lovel=0
sample=Horn_staccato_FF_C4_RR4.opus
</region>

<region>
hivel=127
key=C5
lovel=0
sample=Horn_staccato_FF_C5_RR4.opus
</region>

<region>
hivel=127
key=D#3
lovel=0
sample=Horn_staccato_FF_D#3_RR4.opus
</region>

<region>
hivel=127
key=D#4
lovel=0
sample=Horn_staccato_FF_D#4_RR4.opus
</region>

<region>
hivel=127
key=D#5
lovel=0
sample=Horn_staccato_FF_D#5_RR4.opus
</region>

<region>
hivel=127
key=D3
lovel=0
sample=Horn_staccato_FF_D3_RR4.opus
</region>

<region>
hivel=127
key=D4
lovel=0
sample=Horn_staccato_FF_D4_RR4.opus
</region>

<region>
hivel=127
key=D5
lovel=0
sample=Horn_staccato_FF_D5_RR4.opus
</region>

<region>
hivel=127
key=E3
lovel=0
sample=Horn_staccato_FF_E3_RR4.opus
</region>

<region>
hivel=127
key=E4
lovel=0
sample=Horn_staccato_FF_E4_RR4.opus
</region>

<region>
hivel=127
key=E5
lovel=0
sample=Horn_staccato_FF_E5_RR4.opus
</region>

<region>
hivel=127
key=F#2
lovel=0
sample=Horn_staccato_FF_F#2_RR4.opus
</region>

<region>
hivel=127
key=F#3
lovel=0
sample=Horn_staccato_FF_F#3_RR4.opus
</region>

<region>
hivel=127
key=F#4
lovel=0
sample=Horn_staccato_FF_F#4_RR4.opus
</region>

<region>
hikey=F2
hivel=127
lokey=F1
lovel=0
pitch_keycenter=F2
sample=Horn_staccato_FF_F2_RR4.opus
</region>

<region>
hivel=127
key=F3
lovel=0
sample=Horn_staccato_FF_F3_RR4.opus
</region>

<region>
hivel=127
key=F4
lovel=0
sample=Horn_staccato_FF_F4_RR4.opus
</region>

<region>
hikey=A#5
hivel=127
lokey=F5
lovel=0
pitch_keycenter=F5
sample=Horn_staccato_FF_F5_RR4.opus
</region>

<region>
hivel=127
key=G#2
lovel=0
sample=Horn_staccato_FF_G#2_RR4.opus
</region>

<region>
hivel=127
key=G#3
lovel=0
sample=Horn_staccato_FF_G#3_RR4.opus
</region>

<region>
hivel=127
key=G#4
lovel=0
sample=Horn_staccato_FF_G#4_RR4.opus
</region>

<region>
hivel=127
key=G2
lovel=0
sample=Horn_staccato_FF_G2_RR4.opus
</region>

<region>
hivel=127
key=G3
lovel=0
sample=Horn_staccato_FF_G3_RR4.opus
</region>

<region>
hivel=127
key=G4
lovel=0
sample=Horn_staccato_FF_G4_RR4.opus
</region>
</group>